<?xml version="1.0" encoding="utf-8"?>
<!-- Generator: Adobe Illustrator 18.0.0, SVG Export Plug-In . SVG Version: 6.00 Build 0)  -->
<!DOCTYPE svg PUBLIC "-//W3C//DTD SVG 1.1//EN" "http://www.w3.org/Graphics/SVG/1.1/DTD/svg11.dtd">
<svg version="1.1" id="Layer_1" xmlns="http://www.w3.org/2000/svg" xmlns:xlink="http://www.w3.org/1999/xlink" x="0px" y="0px"
	 width="941.6px" height="246px" viewBox="9.9 164.9 941.6 246" enable-background="new 9.9 164.9 941.6 246" xml:space="preserve">
<g>
	<path fill="#FFFFFF" d="M186.2,236.9L186.2,236.9L119.8,168l0,0c-1.9-1.9-4.4-3.1-7.2-3.1c-2.8,0-5.5,1.3-7.2,3.1l0,0l-66.8,68.9
		l0,0c-17.7,18.5-28.7,43.6-28.7,71.4c0,56.6,46,102.6,102.6,102.6s102.6-46,102.6-102.6C215.1,280.5,204.1,255.4,186.2,236.9z"/>
	<path fill="#00AAE7" d="M190.7,285.2c-4.2-8.2-8.3-16.3-12.5-22.1c-3.6-4.9-7.2-8.2-10.7-9.4h-0.2h-0.2c-2.5-0.8-5.2-1.1-7.7-1.1
		c-8.5,0-17.1,4.2-25.6,11.3c-8.5,7.1-17.1,17.3-25.6,27.3s-17.1,20.1-25.6,27.3c-8.5,7.1-17.1,11.3-25.6,11.3
		c-8.2,0-16.5-3.9-24.6-10.5c6.1,38.7,39.7,68.5,80.2,68.5c44.7,0,81.1-36.2,81.1-81.1C193.6,299.1,192.5,291.9,190.7,285.2z"/>
	<path opacity="0.73" fill="#0072BC" enable-background="new    " d="M178,263.1c-4.4-6.1-8.9-9.7-13.3-9.7s-8.9,3.6-13.3,9.7
		c-4.4,6.1-8.9,14.9-13.3,23.5c-4.4,8.6-8,16.5-12.7,23.1c-4.7,6.4-9.4,10.2-14.1,10.2s-9.4-2.2-14.1-6c-4.7-3.8-8.2-8.2-12.5-13.2
		c-4.4-5-8.9-10-13.3-13.5c-4.4-3.5-8.9-5.6-13.3-5.6s-8.9,2-13.3,5.6c-4.2,3.5-8.6,8.2-12.9,13c-0.2,2-0.3,4.2-0.3,6.3
		c0,44.7,36.2,81.1,81.1,81.1s81.1-36.2,81.1-81.1c0-7.4-0.9-14.6-2.8-21.5C186.5,276.9,182.3,268.9,178,263.1z"/>
</g>
<g>
	<path fill="#FFFFFF" d="M250.2,242h77.2v17.4H298v89.3h-18.2v-89.3h-29.6V242z"/>
	<path fill="#FFFFFF" d="M333.6,271.7h17.6v8.3c0,0,10.2-7.5,23.4-10v18.8c-14,2.8-23.4,8-23.4,8v51.9h-17.6V271.7z"/>
	<path fill="#FFFFFF" d="M384.9,240.6h17.6v18.7h-17.6L384.9,240.6L384.9,240.6z M384.9,271.7h17.6v77h-17.6L384.9,271.7
		L384.9,271.7z"/>
	<path fill="#FFFFFF" d="M421,271.7h17.6v4.2c0,0,10.5-6,19.3-6c20.1,0,29.6,10.7,29.6,39.5c0,32.2-11,41.1-34.5,41.1
		c-6.3,0-13.6-1.3-14.3-1.4V382h-17.6V271.7H421z M438.6,290v43.3c0.6,0.2,8,1.1,13.2,1.1c14,0,17.9-6.7,17.9-25.1
		c0-17.4-5.6-23.4-14.9-23.4C447.8,286.1,438.6,290,438.6,290z"/>
	<path fill="#FFFFFF" d="M501,239.8h17.6v108.9H501V239.8z"/>
	<path fill="#FFFFFF" d="M595.5,333l0.3,13.8c0,0-17.6,3.8-31.4,3.8c-23.4,0-32.5-12.2-32.5-39.4c0-28.1,12.1-41.3,33.4-41.3
		c22,0,32.8,11.3,32.8,35.1l-1.3,12.7h-47.4c0.2,11.3,4.7,16.6,17.3,16.6C579.3,334.4,595.5,333,595.5,333z M581,304
		c0-13.5-4.5-18.4-15.4-18.4c-10.8,0-15.7,5.5-15.7,18.4H581z"/>
	<path fill="#FFFFFF" d="M709.3,346.5c0,0-18,3.9-30.3,3.9c-32.3,0-39.7-18.5-39.7-54.9c0-38.9,9.4-55.2,39.7-55.2
		c13.5,0,30.4,4.2,30.4,4.2l-0.6,15.8c0,0-18-2.4-27.3-2.4c-18.7,0-23.4,8.9-23.4,37.5c0,27.1,3.8,37.2,24,37.2
		c8.3,0,26.7-2.5,26.7-2.5L709.3,346.5z"/>
	<path fill="#FFFFFF" d="M722.7,239.8h17.6v108.9h-17.6V239.8z"/>
	<path fill="#FFFFFF" d="M817.1,333l0.3,13.8c0,0-17.6,3.8-31.4,3.8c-23.4,0-32.5-12.2-32.5-39.4c0-28.1,12.1-41.3,33.4-41.3
		c22,0,32.8,11.3,32.8,35.1l-1.3,12.7h-47.4c0.2,11.3,4.7,16.6,17.3,16.6C800.8,334.4,817.1,333,817.1,333z M802.5,304
		c0-13.5-4.5-18.4-15.4-18.4c-10.8,0-15.7,5.5-15.7,18.4H802.5z"/>
	<path fill="#FFFFFF" d="M891,329.9c0.5,4.4,1.9,6.4,6.4,7.1l-0.6,13.5c-9.6,0-14.9-1.3-20.9-5.5c0,0-12.1,5.5-24.3,5.5
		c-15.4,0-23.2-8.6-23.2-24.6c0-16.5,9.3-22.1,25.9-23.4l19-1.7V296c0-7.1-3.6-10.4-10.7-10.4c-10.5,0-29,1.4-29,1.4l-0.5-13
		c0,0,19-4.2,31.5-4.2c17.3,0,26.2,8,26.2,26v34H891z M856.3,314.8c-6.6,0.6-10.2,3.9-10.2,10.5c0,6.4,2.8,10.7,9.1,10.7
		c6.9,0,18-3.1,18-3.1v-19.6L856.3,314.8z"/>
	<path fill="#FFFFFF" d="M910.6,271.7h17.6v8.3c0,0,10.2-7.5,23.4-10v18.8c-14,2.8-23.4,8-23.4,8v51.9h-17.6V271.7z"/>
</g>
</svg>
