<?xml version="1.0" encoding="utf-8"?>
<!-- Generator: Adobe Illustrator 18.0.0, SVG Export Plug-In . SVG Version: 6.00 Build 0)  -->
<!DOCTYPE svg PUBLIC "-//W3C//DTD SVG 1.1//EN" "http://www.w3.org/Graphics/SVG/1.1/DTD/svg11.dtd">
<svg version="1.1" id="Layer_1" xmlns="http://www.w3.org/2000/svg" xmlns:xlink="http://www.w3.org/1999/xlink" x="0px" y="0px"
	 viewBox="0 0 410.2 105.6" style="enable-background:new 0 0 410.2 105.6;" xml:space="preserve">
<style type="text/css">
	.st0{fill:#FFFFFF;}
	.st1{fill:#00AAE7;}
	.st2{opacity:0.73;fill:#0072BC;}
</style>
<g>
	<g>
		<path class="st0" d="M111.7,44.5h-9v-8H130v8h-9.1v32h-9.2V44.5z"/>
		<path class="st0" d="M152.9,56.9c-1.2-0.3-1.9-0.4-3-0.4c-4.9,0-8,2.5-8,9.2v10.7h-8.7V49h8.7v4.5c1.3-2.6,4.5-4.9,8.5-4.9
			c0.9,0,1.7,0.1,2.5,0.5V56.9z"/>
		<path class="st0" d="M160.9,34.3c3.2,0,5.6,2.5,5.6,5.5c0,3-2.5,5.5-5.6,5.5c-3.1,0-5.6-2.5-5.6-5.5
			C155.3,36.7,157.7,34.3,160.9,34.3z M156.5,49h8.7v27.5h-8.7V49z"/>
		<path class="st0" d="M181,52.9c1.4-2.5,4.6-4.6,8.8-4.6c7.3,0,13,6.2,13,14.4s-5.7,14.4-13,14.4c-4.3,0-7.5-2.1-8.8-4.6v16.4h-8.7
			V49h8.7V52.9z M181,62.7c0,3.8,2.6,7,6.6,7c3.9,0,6.6-3.2,6.6-7c0-3.8-2.6-7-6.6-7C183.6,55.7,181,58.9,181,62.7z"/>
		<path class="st0" d="M207.2,36.5h8.7v39.9h-8.7V36.5z"/>
		<path class="st0" d="M229,64.8c0,3.3,1.5,6.1,5.9,6.1c3.1,0,4.5-1.4,5.1-3.1h8.6c-0.9,5.2-5.7,9.4-13.6,9.4
			c-9.6,0-14.8-6.4-14.8-14.5c0-8,5.1-14.5,14.4-14.5c8.8,0,14.3,5.8,14.3,13.5c0,1.1-0.1,1.7-0.3,3.1H229z M229,59.8h11.4
			c0-3.3-2.3-5.4-5.7-5.4C231.4,54.4,229,56.3,229,59.8z"/>
		<path class="st0" d="M305.4,62.1c-1.5,8.4-8.8,15.4-20,15.4c-13.4,0-21.4-9.8-21.4-21c0-11,7.6-21,21.3-21
			c11.7,0,18.9,7.4,20,16.6h-9.6c-0.9-4.7-4.4-8.2-10.3-8.2c-7.6,0-12,6-12,12.7c0,7,4.9,12.7,12.1,12.7c5.4,0,8.9-3.1,10-7H305.4z"
			/>
		<path class="st0" d="M309.4,36.5h8.7v39.9h-8.7V36.5z"/>
		<path class="st0" d="M331.2,64.8c0,3.3,1.5,6.1,5.9,6.1c3.1,0,4.5-1.4,5.1-3.1h8.6c-0.9,5.2-5.7,9.4-13.6,9.4
			c-9.6,0-14.8-6.4-14.8-14.5c0-8,5.1-14.5,14.4-14.5c8.8,0,14.3,5.8,14.3,13.5c0,1.1-0.1,1.7-0.3,3.1H331.2z M331.2,59.8h11.4
			c0-3.3-2.3-5.4-5.7-5.4C333.6,54.4,331.2,56.3,331.2,59.8z"/>
		<path class="st0" d="M384.5,49v27.5h-8.7v-3.9c-1.4,2.5-4.6,4.6-8.8,4.6c-7.3,0-13-6.2-13-14.4s5.7-14.4,13-14.4
			c4.1,0,7.3,1.9,8.8,4.6V49H384.5z M375.7,62.7c0-3.8-2.6-7-6.6-7c-3.9,0-6.6,3.3-6.6,7c0,3.8,2.6,7,6.6,7
			C373.1,69.7,375.7,66.5,375.7,62.7z"/>
		<path class="st0" d="M410.2,56.9c-1.2-0.3-1.9-0.4-3-0.4c-4.9,0-8,2.5-8,9.2v10.7h-8.7V49h8.7v4.5c1.3-2.6,4.5-4.9,8.5-4.9
			c0.9,0,1.7,0.1,2.5,0.5V56.9z"/>
	</g>
	<g>
		<path class="st0" d="M75.8,30.9L75.8,30.9L47.2,1.3h0C46.4,0.5,45.3,0,44.1,0c-1.2,0-2.3,0.5-3.1,1.3h0L12.4,30.9h0
			C4.7,38.9,0,49.7,0,61.6c0,24.3,19.7,44.1,44.1,44.1s44.1-19.7,44.1-44.1C88.2,49.7,83.4,38.9,75.8,30.9z"/>
		<path class="st1" d="M77.7,51.6c-1.8-3.5-3.6-7-5.4-9.5c-1.5-2.1-3.1-3.5-4.6-4c0,0,0,0-0.1,0l0,0c-1.1-0.3-2.2-0.5-3.3-0.5
			c-3.7,0-7.3,1.8-11,4.9c-3.7,3.1-7.3,7.4-11,11.7c-3.7,4.3-7.3,8.7-11,11.7c-3.7,3.1-7.3,4.9-11,4.9c-3.5,0-7.1-1.7-10.6-4.5
			c2.6,16.7,17,29.4,34.4,29.4c19.2,0,34.8-15.6,34.8-34.8C78.9,57.7,78.5,54.6,77.7,51.6z"/>
		<path class="st2" d="M72.3,42.2c-1.9-2.6-3.8-4.2-5.7-4.2c-1.9,0-3.8,1.5-5.7,4.2c-1.9,2.6-3.8,6.4-5.7,10.1
			c-1.9,3.7-3.4,7.1-5.5,9.9c-2,2.8-4,4.4-6,4.4s-4-0.9-6-2.5c-2-1.6-3.5-3.5-5.4-5.7c-1.9-2.1-3.8-4.3-5.7-5.8s-3.8-2.4-5.7-2.4
			c-1.9,0-3.8,0.9-5.7,2.4c-1.8,1.5-3.7,3.5-5.5,5.6c-0.1,0.9-0.1,1.8-0.1,2.7c0,19.2,15.6,34.8,34.8,34.8s34.8-15.6,34.8-34.8
			c0-3.2-0.4-6.3-1.2-9.2C75.9,48.1,74.1,44.7,72.3,42.2z"/>
	</g>
</g>
</svg>
