<?xml version="1.0" encoding="utf-8"?>
<!-- Generator: Adobe Illustrator 18.0.0, SVG Export Plug-In . SVG Version: 6.00 Build 0)  -->
<!DOCTYPE svg PUBLIC "-//W3C//DTD SVG 1.1//EN" "http://www.w3.org/Graphics/SVG/1.1/DTD/svg11.dtd">
<svg version="1.1" id="Layer_1" xmlns="http://www.w3.org/2000/svg" xmlns:xlink="http://www.w3.org/1999/xlink" x="0px" y="0px"
	 width="512.742px" height="132.04px" viewBox="-51.274 -13.204 512.742 132.04"
	 enable-background="new -51.274 -13.204 512.742 132.04" xml:space="preserve">
<g>
	<g>
		<path fill="#FFFFFF" d="M88.338,42.425H77.067v-9.986h34.17v9.986H99.895v39.947H88.338V42.425z"/>
		<path fill="#FFFFFF" d="M139.84,57.905c-1.497-0.356-2.425-0.5-3.71-0.5c-6.135,0-10.059,3.068-10.059,11.558v13.411h-10.914
			V47.99h10.914v5.564c1.57-3.21,5.635-6.134,10.629-6.134c1.141,0,2.14,0.142,3.139,0.571v9.914H139.84z"/>
		<path fill="#FFFFFF" d="M149.824,29.656c3.995,0,7.062,3.067,7.062,6.92c0,3.78-3.068,6.92-7.062,6.92
			c-3.924,0-6.991-3.139-6.991-6.92C142.833,32.723,145.901,29.656,149.824,29.656z M144.403,47.99h10.914v34.384h-10.914V47.99z"/>
		<path fill="#FFFFFF" d="M175.003,52.911c1.712-3.139,5.706-5.778,11.056-5.778c9.131,0,16.265,7.776,16.265,18.047
			s-7.134,18.048-16.265,18.048c-5.35,0-9.345-2.639-11.056-5.778v20.474h-10.915V47.99h10.915V52.911z M175.003,65.181
			c0,4.779,3.281,8.774,8.204,8.774c4.923,0,8.204-3.995,8.204-8.774c0-4.78-3.281-8.774-8.204-8.774
			C178.285,56.407,175.003,60.401,175.003,65.181z"/>
		<path fill="#FFFFFF" d="M207.743,32.438h10.915v49.934h-10.915V32.438z"/>
		<path fill="#FFFFFF" d="M234.921,67.821c0,4.137,1.926,7.633,7.419,7.633c3.852,0,5.635-1.713,6.42-3.924h10.7
			c-1.141,6.491-7.134,11.77-16.977,11.77c-12.055,0-18.546-7.99-18.546-18.119c0-10.059,6.42-18.119,18.048-18.119
			c11.057,0,17.905,7.276,17.905,16.835c0,1.355-0.071,2.069-0.357,3.924C259.531,67.821,234.921,67.821,234.921,67.821z
			 M234.921,61.542h14.268c0-4.138-2.925-6.776-7.134-6.776C237.988,54.766,234.921,57.192,234.921,61.542z"/>
		<path fill="#FFFFFF" d="M330.435,64.468c-1.926,10.558-10.985,19.189-24.967,19.189c-16.693,0-26.751-12.269-26.751-26.251
			c0-13.696,9.559-26.251,26.608-26.251c14.624,0,23.684,9.202,25.039,20.687h-12.055c-1.07-5.85-5.493-10.272-12.84-10.272
			c-9.559,0-14.98,7.561-14.98,15.836c0,8.775,6.064,15.836,15.122,15.836c6.706,0,11.129-3.853,12.555-8.774
			C318.164,64.468,330.435,64.468,330.435,64.468z"/>
		<path fill="#FFFFFF" d="M335.497,32.438h10.915v49.934h-10.915V32.438z"/>
		<path fill="#FFFFFF" d="M362.674,67.821c0,4.137,1.926,7.633,7.419,7.633c3.853,0,5.635-1.713,6.42-3.924h10.7
			c-1.141,6.491-7.134,11.77-16.978,11.77c-12.055,0-18.546-7.99-18.546-18.119c0-10.059,6.42-18.119,18.047-18.119
			c11.058,0,17.905,7.276,17.905,16.835c0,1.355-0.071,2.069-0.358,3.924C387.284,67.821,362.674,67.821,362.674,67.821z
			 M362.674,61.542h14.267c0-4.138-2.925-6.776-7.134-6.776C365.742,54.766,362.674,57.192,362.674,61.542z"/>
		<path fill="#FFFFFF" d="M429.298,47.99v34.384h-10.914v-4.851c-1.712,3.139-5.706,5.706-10.985,5.706
			c-9.131,0-16.265-7.775-16.265-18.048s7.134-18.048,16.265-18.048c5.065,0,9.131,2.426,10.985,5.778V47.99L429.298,47.99
			L429.298,47.99z M418.384,65.181c0-4.707-3.281-8.774-8.204-8.774s-8.204,4.066-8.204,8.774c0,4.779,3.281,8.774,8.204,8.774
			S418.384,69.96,418.384,65.181z"/>
		<path fill="#FFFFFF" d="M461.468,57.905c-1.497-0.356-2.425-0.5-3.71-0.5c-6.135,0-10.059,3.068-10.059,11.558v13.411h-10.914
			V47.99H447.7v5.564c1.57-3.21,5.635-6.134,10.629-6.134c1.141,0,2.14,0.142,3.139,0.571v9.914H461.468z"/>
	</g>
	<g>
		<path fill="#FFFFFF" d="M43.453,25.47h0.02L7.746-11.539H7.741c-0.99-1.025-2.376-1.665-3.914-1.665s-2.924,0.64-3.915,1.665
			h-0.005L-35.82,25.47h0.02c-9.574,9.912-15.474,23.396-15.474,38.265c0,30.431,24.67,55.101,55.101,55.101
			s55.101-24.669,55.101-55.101C58.927,48.866,53.027,35.382,43.453,25.47z"/>
		<path fill="#00AAE7" d="M45.837,51.354c-2.254-4.399-4.506-8.728-6.76-11.84c-1.919-2.651-3.839-4.421-5.758-5.018
			c-0.026-0.009-0.054-0.016-0.08-0.024l-0.053-0.016c-1.377-0.386-2.754-0.588-4.131-0.588c-4.586,0-9.171,2.24-13.758,6.064
			c-4.586,3.824-9.171,9.23-13.758,14.637S-7.63,65.383-12.217,69.207c-4.586,3.824-9.171,6.064-13.758,6.064
			c-4.41,0-8.821-2.076-13.231-5.636c3.254,20.84,21.279,36.786,43.032,36.786c24.056,0,43.559-19.501,43.559-43.559
			C47.386,58.876,46.839,55.02,45.837,51.354z"/>
		<path opacity="0.73" fill="#0072BC" enable-background="new    " d="M39.077,39.514c-2.393-3.305-4.784-5.24-7.176-5.24
			c-2.393,0-4.784,1.936-7.176,5.24c-2.393,3.305-4.784,7.979-7.176,12.651c-2.393,4.674-4.31,8.879-6.829,12.359
			c-2.519,3.48-5.037,5.519-7.556,5.519s-5.037-1.171-7.558-3.171c-2.519-1.999-4.37-4.409-6.761-7.094
			c-2.392-2.685-4.784-5.37-7.176-7.269s-4.784-3.011-7.176-3.011s-4.784,1.112-7.176,3.011c-2.301,1.828-4.604,4.382-6.905,6.966
			c-0.086,1.119-0.144,2.245-0.144,3.386c0,24.058,19.502,43.559,43.559,43.559s43.559-19.501,43.559-43.559
			c0-3.985-0.545-7.84-1.548-11.506C43.585,46.955,41.331,42.626,39.077,39.514z"/>
	</g>
</g>
</svg>
