<?xml version="1.0" encoding="utf-8"?>
<!-- Generator: Adobe Illustrator 18.0.0, SVG Export Plug-In . SVG Version: 6.00 Build 0)  -->
<!DOCTYPE svg PUBLIC "-//W3C//DTD SVG 1.1//EN" "http://www.w3.org/Graphics/SVG/1.1/DTD/svg11.dtd">
<svg version="1.1" id="Layer_1" xmlns="http://www.w3.org/2000/svg" xmlns:xlink="http://www.w3.org/1999/xlink" x="0px" y="0px"
	 viewBox="0 0 600.2 156.7" style="enable-background:new 0 0 600.2 156.7;" xml:space="preserve">
<style type="text/css">
	.st0{fill:#FFFFFF;}
	.st1{fill:#00AAE7;}
	.st2{opacity:0.73;fill:#0072BC;}
</style>
<g>
	<path class="st0" d="M112.4,45.9L112.4,45.9L70,2h0c-1.2-1.2-2.8-2-4.6-2c-1.8,0-3.5,0.8-4.6,2h0L18.3,45.9h0C7,57.7,0,73.7,0,91.3
		c0,36.1,29.3,65.4,65.4,65.4s65.4-29.3,65.4-65.4C130.8,73.7,123.8,57.7,112.4,45.9z"/>
	<path class="st1" d="M115.2,76.6c-2.7-5.2-5.3-10.4-8-14.1c-2.3-3.1-4.6-5.2-6.8-6c0,0-0.1,0-0.1,0l-0.1,0
		c-1.6-0.5-3.3-0.7-4.9-0.7c-5.4,0-10.9,2.7-16.3,7.2c-5.4,4.5-10.9,11-16.3,17.4c-5.4,6.4-10.9,12.8-16.3,17.4
		c-5.4,4.5-10.9,7.2-16.3,7.2c-5.2,0-10.5-2.5-15.7-6.7C18.2,123,39.6,142,65.4,142c28.5,0,51.7-23.1,51.7-51.7
		C117.1,85.5,116.4,81,115.2,76.6z"/>
	<path class="st2" d="M107.2,62.6c-2.8-3.9-5.7-6.2-8.5-6.2c-2.8,0-5.7,2.3-8.5,6.2s-5.7,9.5-8.5,15c-2.8,5.5-5.1,10.5-8.1,14.7
		c-3,4.1-6,6.5-9,6.5s-6-1.4-9-3.8c-3-2.4-5.2-5.2-8-8.4c-2.8-3.2-5.7-6.4-8.5-8.6s-5.7-3.6-8.5-3.6c-2.8,0-5.7,1.3-8.5,3.6
		c-2.7,2.2-5.5,5.2-8.2,8.3c-0.1,1.3-0.2,2.7-0.2,4c0,28.5,23.1,51.7,51.7,51.7s51.7-23.1,51.7-51.7c0-4.7-0.6-9.3-1.8-13.7
		C112.6,71.4,109.9,66.3,107.2,62.6z"/>
</g>
<g>
	<path class="st0" d="M153.2,49.1h49.2v11.1h-18.7v56.9h-11.6V60.2h-18.9V49.1z"/>
	<path class="st0" d="M206.4,68.1h11.2v5.2c0,0,6.5-4.8,14.9-6.4v12c-8.9,1.8-14.9,5.1-14.9,5.1v33.1h-11.2V68.1z"/>
	<path class="st0" d="M239.1,48.2h11.2v11.9h-11.2V48.2z M239.1,68.1h11.2v49.1h-11.2V68.1z"/>
	<path class="st0" d="M262.1,68.1h11.2v2.7c0,0,6.7-3.8,12.3-3.8c12.8,0,18.9,6.8,18.9,25.2c0,20.5-7,26.2-22,26.2
		c-4,0-8.7-0.8-9.1-0.9v20.9h-11.2V68.1z M273.3,79.8v27.6c0.4,0.1,5.1,0.7,8.4,0.7c8.9,0,11.4-4.3,11.4-16
		c0-11.1-3.6-14.9-9.5-14.9C279.2,77.2,273.3,79.8,273.3,79.8z"/>
	<path class="st0" d="M313.1,47.7h11.2v69.4h-11.2V47.7z"/>
	<path class="st0" d="M373.3,107.1l0.2,8.8c0,0-11.2,2.4-20,2.4c-14.9,0-20.7-7.8-20.7-25.1c0-17.9,7.7-26.3,21.3-26.3
		c14,0,20.9,7.2,20.9,22.4l-0.8,8.1h-30.2c0.1,7.2,3,10.6,11,10.6C363,108,373.3,107.1,373.3,107.1z M364.1,88.6
		c0-8.6-2.9-11.7-9.8-11.7s-10,3.5-10,11.7H364.1z"/>
	<path class="st0" d="M445.9,115.8c0,0-11.5,2.5-19.3,2.5c-20.6,0-25.3-11.8-25.3-35c0-24.8,6-35.2,25.3-35.2
		c8.6,0,19.4,2.7,19.4,2.7l-0.4,10.1c0,0-11.5-1.5-17.4-1.5c-11.9,0-14.9,5.7-14.9,23.9c0,17.3,2.4,23.7,15.3,23.7
		c5.3,0,17-1.6,17-1.6L445.9,115.8z"/>
	<path class="st0" d="M454.4,47.7h11.2v69.4h-11.2V47.7z"/>
	<path class="st0" d="M514.5,107.1l0.2,8.8c0,0-11.2,2.4-20,2.4c-14.9,0-20.7-7.8-20.7-25.1c0-17.9,7.7-26.3,21.3-26.3
		c14,0,20.9,7.2,20.9,22.4l-0.8,8.1h-30.2c0.1,7.2,3,10.6,11,10.6C504.2,108,514.5,107.1,514.5,107.1z M505.3,88.6
		c0-8.6-2.9-11.7-9.8-11.7s-10,3.5-10,11.7H505.3z"/>
	<path class="st0" d="M561.7,105.2c0.3,2.8,1.2,4.1,4.1,4.5l-0.4,8.6c-6.1,0-9.5-0.8-13.3-3.5c0,0-7.7,3.5-15.5,3.5
		c-9.8,0-14.8-5.5-14.8-15.7c0-10.5,5.9-14.1,16.5-14.9l12.1-1.1v-3c0-4.5-2.3-6.6-6.8-6.6c-6.7,0-18.5,0.9-18.5,0.9l-0.3-8.3
		c0,0,12.1-2.7,20.1-2.7c11,0,16.7,5.1,16.7,16.6V105.2z M539.6,95.5c-4.2,0.4-6.5,2.5-6.5,6.7c0,4.1,1.8,6.8,5.8,6.8
		c4.4,0,11.5-2,11.5-2V94.5L539.6,95.5z"/>
	<path class="st0" d="M574.2,68.1h11.2v5.2c0,0,6.5-4.8,14.9-6.4v12c-8.9,1.8-14.9,5.1-14.9,5.1v33.1h-11.2V68.1z"/>
</g>
</svg>
